<?xml version="1.0" standalone="no"?>
<!DOCTYPE svg PUBLIC "-//W3C//DTD SVG 20010904//EN"
 "http://www.w3.org/TR/2001/REC-SVG-20010904/DTD/svg10.dtd">
<svg version="1.0" xmlns="http://www.w3.org/2000/svg"
 width="99.000000pt" height="99.000000pt" viewBox="0 0 99.000000 99.000000"
 preserveAspectRatio="xMidYMid meet">
<metadata>
Created by potrace 1.14, written by Peter Selinger 2001-2017
</metadata>
<g transform="translate(0.000000,99.000000) scale(0.100000,-0.100000)"
fill="#000000" stroke="none">
<path d="M108 963 c-62 -18 -99 -65 -103 -130 -4 -54 5 -74 47 -120 l30 -31
-31 -39 c-47 -59 -47 -128 0 -179 20 -22 20 -22 0 -60 -36 -66 -22 -122 36
-149 28 -14 55 -16 135 -12 95 5 100 4 108 -16 16 -42 69 -105 112 -135 75
-51 117 -61 293 -66 147 -5 184 4 208 51 18 35 14 74 -12 118 -15 27 -17 36
-7 42 24 15 46 58 46 91 0 35 -29 100 -54 121 -14 12 -11 18 24 52 50 49 57
107 19 180 -26 52 -75 73 -179 75 -47 1 -88 2 -91 3 -3 1 -13 18 -22 39 -33
73 -115 138 -206 162 -67 18 -297 20 -353 3z m346 -139 c22 -11 50 -34 63 -51
l24 -31 -53 -25 c-108 -50 -172 -148 -185 -281 l-5 -61 -54 -3 -53 -3 16 31
c21 44 10 94 -27 122 -34 24 -37 40 -14 59 21 18 45 65 48 97 4 43 -13 79 -50
107 -68 52 -48 61 136 60 96 0 121 -3 154 -21z m394 -208 c19 -11 14 -19 -22
-44 -66 -45 -73 -130 -17 -201 l31 -39 -30 -26 c-44 -36 -56 -77 -36 -117 9
-18 16 -34 16 -36 0 -8 -168 -2 -202 7 -40 11 -92 50 -108 80 -9 16 -2 22 43
43 103 48 172 149 184 271 3 34 10 64 15 67 13 8 111 4 126 -5z"/>
</g>
</svg>
